<?xml version="1.0" standalone="no"?>
<!DOCTYPE svg PUBLIC "-//W3C//DTD SVG 20010904//EN"
 "http://www.w3.org/TR/2001/REC-SVG-20010904/DTD/svg10.dtd">
<svg version="1.0" xmlns="http://www.w3.org/2000/svg"
 width="451.000000pt" height="468.000000pt" viewBox="0 0 451.000000 468.000000"
 preserveAspectRatio="xMidYMid meet">

<g transform="translate(0.000000,468.000000) scale(0.100000,-0.100000)"
fill="#000000" stroke="none">
<path d="M1550 4455 c-63 -188 -64 -433 -5 -635 20 -67 96 -263 100 -258 2 2
-8 50 -21 108 -32 141 -54 312 -54 418 l1 87 38 -43 c97 -111 186 -306 197
-434 5 -57 4 -64 -15 -76 -19 -11 -21 -10 -21 10 0 13 -5 41 -11 63 l-12 40
-21 -86 c-17 -68 -30 -98 -65 -142 -64 -84 -83 -154 -65 -245 l6 -30 71 34
c61 29 82 34 142 34 38 0 103 -9 144 -20 96 -26 192 -25 294 1 115 29 203 24
285 -17 36 -17 65 -27 69 -21 3 5 6 37 6 71 0 84 -28 142 -104 221 l-62 65 71
74 c196 207 312 457 324 701 4 81 -17 85 -56 10 -37 -72 -133 -159 -236 -216
-253 -139 -323 -194 -378 -297 -17 -31 -36 -83 -43 -114 l-14 -58 -56 0 -57 0
-7 55 c-11 88 -71 194 -190 335 -124 147 -181 250 -198 359 -7 42 -16 71 -23
71 -7 0 -22 -29 -34 -65z m1160 -350 c0 -3 -13 -40 -30 -83 -30 -77 -138 -267
-206 -362 -31 -43 -39 -49 -52 -38 -24 21 -44 77 -38 112 6 30 5 29 -14 -9
-11 -22 -20 -46 -20 -53 0 -9 -7 -11 -22 -7 -41 13 -42 22 -10 87 60 121 172
234 317 322 58 35 75 42 75 31z"/>
<path d="M2682 3358 c5 -29 13 -56 16 -59 4 -3 36 -16 72 -29 335 -118 636
-386 795 -709 152 -307 191 -648 111 -977 -100 -409 -383 -760 -761 -944 -238
-116 -440 -159 -695 -147 -215 10 -384 54 -571 147 -139 70 -235 137 -352 250
-133 126 -215 238 -292 395 -115 234 -149 377 -149 635 0 193 13 283 65 443
62 194 194 413 337 560 60 62 191 168 255 206 20 12 37 26 37 29 -1 4 -7 28
-13 55 l-13 47 -90 -59 c-335 -223 -570 -571 -655 -970 -26 -124 -36 -353 -20
-487 68 -582 464 -1076 1022 -1272 176 -62 272 -77 499 -77 231 0 310 12 489
72 652 218 1080 841 1048 1525 -27 556 -348 1053 -845 1303 -67 34 -277 115
-298 115 -1 0 3 -24 8 -52z"/>
<path d="M1810 3226 c-6 -16 -5 -47 2 -86 8 -46 7 -64 -2 -75 -35 -42 -84 10
-96 102 -7 55 -9 59 -33 44 -11 -7 -12 -22 -7 -66 13 -113 68 -167 168 -167
83 0 146 61 162 157 4 22 9 47 12 56 4 15 -23 23 -174 55 -17 3 -25 -1 -32
-20z"/>
<path d="M2345 3239 c-16 -5 -59 -14 -93 -20 l-64 -11 7 -37 c25 -141 73 -193
176 -193 90 0 148 62 164 175 l6 48 -43 18 c-55 24 -115 32 -153 20z"/>
<path d="M1549 3074 c-44 -82 -54 -109 -57 -161 -7 -97 38 -209 138 -351 55
-79 76 -84 67 -18 -4 29 -3 36 4 24 5 -9 14 -50 19 -90 26 -205 122 -359 265
-424 46 -22 74 -27 130 -27 167 0 297 124 355 338 17 63 35 98 81 162 119 164
177 303 166 395 -6 50 -104 251 -118 243 -3 -3 -9 -26 -13 -53 -8 -61 -52
-132 -101 -162 -56 -35 -156 -39 -214 -8 -60 31 -100 84 -121 160 -16 58 -19
63 -46 66 -28 3 -31 0 -43 -50 -33 -131 -110 -198 -230 -198 -107 1 -211 97
-211 197 -1 66 -17 56 -71 -43z m653 -163 c29 -18 58 -49 79 -85 26 -41 41
-57 64 -62 52 -11 85 -34 101 -67 23 -47 4 -110 -45 -158 -31 -28 -36 -39 -30
-57 12 -32 3 -48 -49 -81 -66 -41 -165 -73 -248 -79 -80 -5 -132 8 -181 44
-27 20 -33 33 -39 80 -6 48 -12 62 -42 88 -39 35 -62 81 -62 126 0 42 45 86
102 101 37 10 49 19 67 55 63 119 182 159 283 95z m147 -593 c-6 -12 -33 -43
-59 -69 -79 -79 -149 -105 -235 -87 -41 8 -60 20 -103 65 -30 30 -52 56 -50
58 2 2 31 -3 63 -11 41 -11 90 -15 157 -12 88 3 102 7 165 40 37 20 69 36 71
37 1 1 -3 -9 -9 -21z"/>
<path d="M1840 2670 c-29 -29 -25 -56 13 -83 26 -20 87 -47 103 -47 10 0 1 31
-21 76 -31 63 -66 83 -95 54z"/>
<path d="M2319 2676 c-23 -11 -60 -68 -74 -113 -8 -30 6 -29 72 1 59 28 77 53
64 89 -12 31 -32 38 -62 23z"/>
<path d="M2778 2682 c-16 -31 -58 -91 -94 -132 -81 -92 -105 -128 -133 -205
-32 -87 -87 -184 -129 -228 l-37 -39 40 17 c163 66 425 333 474 482 13 39 12
43 -9 75 -28 39 -72 88 -79 87 -3 0 -18 -26 -33 -57z"/>
<path d="M3250 2688 c-12 -10 -17 -18 -10 -18 7 0 18 -6 24 -14 9 -11 13 -11
26 3 13 14 13 18 -1 32 -14 14 -18 14 -39 -3z"/>
<path d="M1176 2342 c-6 -23 -18 -37 -43 -51 l-36 -18 32 -11 c21 -7 36 -22
45 -43 l13 -31 11 31 c7 21 22 36 44 45 l32 14 -35 15 c-26 11 -38 23 -45 48
l-11 34 -7 -33z"/>
<path d="M2765 2166 c-17 -19 -38 -56 -46 -83 -19 -66 -17 -320 4 -438 23
-130 40 -310 33 -338 -3 -15 -18 -30 -37 -37 -27 -12 -33 -11 -50 7 -30 29
-38 82 -39 226 0 141 -10 174 -55 195 -29 13 -67 15 -114 6 -37 -8 -38 -15 -9
-54 28 -38 35 -150 19 -303 -11 -115 -31 -170 -59 -165 -35 7 -41 45 -29 176
12 136 2 216 -31 262 -22 29 -80 38 -127 20 l-28 -11 21 -22 c49 -52 69 -158
52 -276 -16 -112 -55 -164 -97 -130 -25 21 -32 53 -43 189 -5 71 -16 144 -23
163 -21 48 -71 87 -113 87 -77 0 -124 -57 -142 -170 -9 -57 -16 -53 -27 13 -4
23 -19 53 -38 74 -39 42 -82 46 -145 14 -49 -25 -77 -62 -94 -124 l-12 -46
-38 44 c-75 85 -166 93 -222 20 -14 -18 -26 -36 -26 -38 0 -2 17 -9 38 -15 57
-17 117 -65 148 -118 24 -40 28 -62 35 -167 10 -156 17 -192 41 -214 18 -16
23 -16 96 2 56 15 76 24 75 35 -16 113 -33 319 -32 392 0 110 15 162 46 166
19 3 23 -4 32 -50 13 -69 28 -177 36 -255 9 -93 31 -159 63 -183 22 -18 37
-21 79 -18 29 3 55 7 58 9 2 3 -5 47 -15 99 -37 175 -36 329 2 407 15 31 52
42 61 19 3 -8 13 -84 23 -168 24 -224 59 -298 140 -298 39 0 95 44 113 88 l12
29 29 -27 c60 -56 137 -41 170 32 11 24 20 52 20 64 0 35 10 33 49 -8 32 -34
45 -41 87 -45 64 -6 120 16 136 54 7 15 13 30 14 32 2 1 13 -4 26 -13 30 -21
107 -21 138 1 33 23 48 41 66 81 l15 33 31 -23 c21 -14 51 -23 88 -26 96 -7
143 31 210 168 23 47 49 93 58 103 14 16 14 19 2 27 -26 17 -86 11 -104 -9
-10 -10 -28 -51 -41 -90 -34 -100 -51 -128 -81 -135 -38 -10 -58 0 -77 39 -36
76 -21 107 98 200 95 74 123 123 110 192 -20 111 -124 110 -239 -2 -81 -78
-116 -188 -116 -361 0 -103 -9 -137 -40 -154 -30 -16 -55 2 -76 55 -26 68 -15
183 31 315 52 150 75 254 75 337 0 121 -41 173 -135 173 -41 0 -52 -5 -80 -34z
m99 -88 c13 -51 4 -159 -26 -308 -9 -50 -11 -53 -20 -30 -5 13 -12 90 -15 171
-6 140 -5 147 16 168 27 27 37 27 45 -1z m391 -238 c12 -37 -15 -85 -86 -155
l-71 -70 6 45 c10 66 55 151 95 178 42 27 48 27 56 2z"/>
<path d="M3397 2134 c-14 -15 -6 -34 14 -34 14 0 19 5 17 17 -3 18 -20 27 -31
17z"/>
<path d="M980 1996 c0 -21 21 -31 30 -15 5 7 6 17 4 21 -9 14 -34 9 -34 -6z"/>
<path d="M2258 1983 c-54 -16 -55 -17 -32 -109 l17 -66 38 6 c57 9 89 24 89
41 0 18 -4 18 -50 5 -47 -14 -63 10 -17 26 18 6 34 19 35 28 3 16 -1 17 -37
11 -55 -9 -58 17 -3 31 22 5 37 15 37 24 0 20 -21 21 -77 3z"/>
<path d="M2048 1925 c-57 -32 -64 -91 -18 -137 27 -26 36 -30 67 -25 45 8 76
36 63 57 -8 13 -13 13 -39 -3 -36 -21 -36 -21 -55 -1 -36 36 -4 94 44 79 13
-4 22 -1 26 10 8 20 4 24 -32 30 -16 3 -41 -1 -56 -10z"/>
<path d="M1837 1868 c-17 -13 -43 -151 -31 -169 9 -16 31 -10 37 10 6 24 62
38 83 20 12 -10 18 -9 30 2 12 13 8 23 -37 82 -29 37 -55 67 -59 67 -3 0 -14
-6 -23 -12z m41 -70 c18 -18 15 -28 -8 -28 -13 0 -20 7 -20 20 0 23 10 26 28
8z"/>
<path d="M1607 1808 c-31 -11 -31 -9 -1 -116 11 -41 19 -53 32 -50 10 2 18 14
20 31 2 18 9 27 21 27 40 0 64 58 41 101 -12 21 -64 25 -113 7z m83 -48 c0
-10 -9 -22 -21 -25 -24 -8 -24 -7 -33 22 -5 16 -2 22 11 25 27 6 43 -2 43 -22z"/>
<path d="M1418 1755 c-54 -30 -22 -95 45 -95 19 0 27 -4 24 -12 -2 -7 -19 -13
-38 -13 -41 0 -54 -29 -17 -38 50 -13 108 19 108 58 0 29 -17 43 -59 47 -46 4
-52 26 -9 30 21 2 33 8 33 18 0 21 -53 24 -87 5z"/>
<path d="M1133 1726 c3 -8 2 -17 -3 -22 -5 -5 1 -14 15 -20 20 -10 24 -9 27
10 3 16 -2 25 -20 34 -19 9 -23 8 -19 -2z"/>
<path d="M3298 1258 c-21 -6 -38 -16 -38 -24 0 -19 32 -137 40 -146 10 -13
120 23 120 40 0 11 -8 13 -37 7 -21 -4 -42 -7 -47 -8 -6 -1 -11 6 -14 15 -2
13 6 19 32 24 33 6 45 21 30 36 -3 4 -20 2 -37 -3 -22 -6 -33 -5 -38 3 -11 18
-3 25 36 32 21 4 35 13 35 21 0 17 -26 18 -82 3z"/>
<path d="M3075 1197 c-45 -14 -45 -11 -26 -94 18 -81 26 -87 85 -67 75 26 99
87 54 138 -29 32 -62 38 -113 23z m79 -43 c29 -29 18 -66 -26 -83 -25 -9 -26
-8 -37 35 -6 25 -9 49 -6 55 10 14 52 11 69 -7z"/>
<path d="M2853 1135 c-61 -26 -71 -89 -23 -137 27 -26 36 -30 67 -25 51 9 83
42 83 86 -1 43 -17 66 -54 81 -34 12 -34 12 -73 -5z m75 -37 c7 -7 12 -24 12
-38 0 -14 -5 -31 -12 -38 -28 -28 -88 -2 -88 38 0 40 60 66 88 38z"/>
<path d="M2625 1066 c-55 -55 -20 -146 57 -146 43 0 89 32 72 50 -9 9 -18 8
-38 -5 -22 -14 -32 -16 -51 -7 -24 11 -30 27 -25 62 3 24 19 35 53 35 48 0 43
29 -5 33 -29 3 -43 -2 -63 -22z"/>
<path d="M2300 940 c-74 -21 -245 -68 -379 -104 -135 -36 -249 -70 -255 -76
-7 -7 -6 -14 2 -22 14 -14 24 -12 465 107 150 40 291 79 315 85 32 8 42 15 40
28 -5 27 -42 23 -188 -18z"/>
</g>
</svg>
